<mxfile host="app.diagrams.net" modified="2023-05-31T05:41:02.146Z" agent="Mozilla/5.0 (Windows NT 10.0; Win64; x64) AppleWebKit/537.36 (KHTML, like Gecko) Chrome/113.0.0.0 Safari/537.36" etag="izNkdlkkH3T5xPrJelDo" version="21.3.4" type="github">
  <diagram name="페이지-1" id="N4OSFqU1gijd7xc7nz6D">
    <mxGraphModel dx="1674" dy="884" grid="1" gridSize="10" guides="1" tooltips="1" connect="1" arrows="1" fold="1" page="1" pageScale="1" pageWidth="827" pageHeight="1169" math="0" shadow="0">
      <root>
        <mxCell id="0" />
        <mxCell id="1" parent="0" />
        <mxCell id="9-83KYWDqsgWYCN_nNXG-3" value="number, method" style="shape=parallelogram;perimeter=parallelogramPerimeter;whiteSpace=wrap;html=1;fixedSize=1;" vertex="1" parent="1">
          <mxGeometry x="150" y="250" width="120" height="50" as="geometry" />
        </mxCell>
        <mxCell id="9-83KYWDqsgWYCN_nNXG-5" value="original = number" style="rounded=0;whiteSpace=wrap;html=1;" vertex="1" parent="1">
          <mxGeometry x="150" y="340" width="120" height="60" as="geometry" />
        </mxCell>
        <mxCell id="9-83KYWDqsgWYCN_nNXG-20" style="edgeStyle=orthogonalEdgeStyle;rounded=0;orthogonalLoop=1;jettySize=auto;html=1;exitX=0.5;exitY=1;exitDx=0;exitDy=0;exitPerimeter=0;entryX=0.5;entryY=0;entryDx=0;entryDy=0;" edge="1" parent="1" source="9-83KYWDqsgWYCN_nNXG-6" target="9-83KYWDqsgWYCN_nNXG-17">
          <mxGeometry relative="1" as="geometry" />
        </mxCell>
        <mxCell id="9-83KYWDqsgWYCN_nNXG-6" value="진수 변환&lt;br&gt;i : 0, 1, original" style="strokeWidth=2;html=1;shape=mxgraph.flowchart.loop_limit;whiteSpace=wrap;" vertex="1" parent="1">
          <mxGeometry x="160" y="430" width="100" height="60" as="geometry" />
        </mxCell>
        <mxCell id="9-83KYWDqsgWYCN_nNXG-8" value="Start" style="strokeWidth=2;html=1;shape=mxgraph.flowchart.terminator;whiteSpace=wrap;" vertex="1" parent="1">
          <mxGeometry x="140" y="50" width="140" height="60" as="geometry" />
        </mxCell>
        <mxCell id="9-83KYWDqsgWYCN_nNXG-11" value="count, change[100],&lt;br&gt;alphabet[]" style="shape=hexagon;perimeter=hexagonPerimeter2;whiteSpace=wrap;html=1;fixedSize=1;" vertex="1" parent="1">
          <mxGeometry x="150" y="140" width="120" height="80" as="geometry" />
        </mxCell>
        <mxCell id="9-83KYWDqsgWYCN_nNXG-12" value="" style="endArrow=classic;html=1;rounded=0;exitX=0.5;exitY=1;exitDx=0;exitDy=0;exitPerimeter=0;entryX=0.5;entryY=0;entryDx=0;entryDy=0;" edge="1" parent="1" source="9-83KYWDqsgWYCN_nNXG-8" target="9-83KYWDqsgWYCN_nNXG-11">
          <mxGeometry width="50" height="50" relative="1" as="geometry">
            <mxPoint x="190" y="380" as="sourcePoint" />
            <mxPoint x="240" y="330" as="targetPoint" />
          </mxGeometry>
        </mxCell>
        <mxCell id="9-83KYWDqsgWYCN_nNXG-13" value="" style="endArrow=classic;html=1;rounded=0;exitX=0.5;exitY=1;exitDx=0;exitDy=0;" edge="1" parent="1" source="9-83KYWDqsgWYCN_nNXG-11" target="9-83KYWDqsgWYCN_nNXG-3">
          <mxGeometry width="50" height="50" relative="1" as="geometry">
            <mxPoint x="190" y="380" as="sourcePoint" />
            <mxPoint x="240" y="330" as="targetPoint" />
          </mxGeometry>
        </mxCell>
        <mxCell id="9-83KYWDqsgWYCN_nNXG-14" value="" style="endArrow=classic;html=1;rounded=0;exitX=0.5;exitY=1;exitDx=0;exitDy=0;entryX=0.5;entryY=0;entryDx=0;entryDy=0;" edge="1" parent="1" source="9-83KYWDqsgWYCN_nNXG-3" target="9-83KYWDqsgWYCN_nNXG-5">
          <mxGeometry width="50" height="50" relative="1" as="geometry">
            <mxPoint x="190" y="380" as="sourcePoint" />
            <mxPoint x="240" y="330" as="targetPoint" />
          </mxGeometry>
        </mxCell>
        <mxCell id="9-83KYWDqsgWYCN_nNXG-16" value="" style="endArrow=classic;html=1;rounded=0;exitX=0.5;exitY=1;exitDx=0;exitDy=0;entryX=0.5;entryY=0;entryDx=0;entryDy=0;entryPerimeter=0;" edge="1" parent="1" source="9-83KYWDqsgWYCN_nNXG-5" target="9-83KYWDqsgWYCN_nNXG-6">
          <mxGeometry width="50" height="50" relative="1" as="geometry">
            <mxPoint x="190" y="480" as="sourcePoint" />
            <mxPoint x="240" y="430" as="targetPoint" />
          </mxGeometry>
        </mxCell>
        <mxCell id="9-83KYWDqsgWYCN_nNXG-22" style="edgeStyle=orthogonalEdgeStyle;rounded=0;orthogonalLoop=1;jettySize=auto;html=1;exitX=0.5;exitY=1;exitDx=0;exitDy=0;entryX=0.5;entryY=0;entryDx=0;entryDy=0;" edge="1" parent="1" source="9-83KYWDqsgWYCN_nNXG-17" target="9-83KYWDqsgWYCN_nNXG-21">
          <mxGeometry relative="1" as="geometry" />
        </mxCell>
        <mxCell id="9-83KYWDqsgWYCN_nNXG-17" value="count ++" style="rounded=0;whiteSpace=wrap;html=1;" vertex="1" parent="1">
          <mxGeometry x="150" y="520" width="120" height="40" as="geometry" />
        </mxCell>
        <mxCell id="9-83KYWDqsgWYCN_nNXG-23" value="N" style="edgeStyle=orthogonalEdgeStyle;rounded=0;orthogonalLoop=1;jettySize=auto;html=1;exitX=0.5;exitY=1;exitDx=0;exitDy=0;" edge="1" parent="1" source="9-83KYWDqsgWYCN_nNXG-21">
          <mxGeometry relative="1" as="geometry">
            <mxPoint x="210" y="730" as="targetPoint" />
          </mxGeometry>
        </mxCell>
        <mxCell id="9-83KYWDqsgWYCN_nNXG-24" value="Y" style="edgeStyle=orthogonalEdgeStyle;rounded=0;orthogonalLoop=1;jettySize=auto;html=1;exitX=1;exitY=0.5;exitDx=0;exitDy=0;" edge="1" parent="1" source="9-83KYWDqsgWYCN_nNXG-21" target="9-83KYWDqsgWYCN_nNXG-25">
          <mxGeometry relative="1" as="geometry">
            <mxPoint x="330" y="630" as="targetPoint" />
          </mxGeometry>
        </mxCell>
        <mxCell id="9-83KYWDqsgWYCN_nNXG-21" value="number &amp;lt; method" style="rhombus;whiteSpace=wrap;html=1;" vertex="1" parent="1">
          <mxGeometry x="150" y="590" width="120" height="80" as="geometry" />
        </mxCell>
        <mxCell id="9-83KYWDqsgWYCN_nNXG-28" style="edgeStyle=orthogonalEdgeStyle;rounded=0;orthogonalLoop=1;jettySize=auto;html=1;exitX=0.5;exitY=1;exitDx=0;exitDy=0;exitPerimeter=0;entryX=0.5;entryY=0;entryDx=0;entryDy=0;" edge="1" parent="1" source="9-83KYWDqsgWYCN_nNXG-25" target="9-83KYWDqsgWYCN_nNXG-26">
          <mxGeometry relative="1" as="geometry" />
        </mxCell>
        <mxCell id="9-83KYWDqsgWYCN_nNXG-25" value="진수에 알파벳이 포함 될때&lt;br&gt;j : 0, 1, 37" style="strokeWidth=2;html=1;shape=mxgraph.flowchart.loop_limit;whiteSpace=wrap;" vertex="1" parent="1">
          <mxGeometry x="330" y="600" width="150" height="60" as="geometry" />
        </mxCell>
        <mxCell id="9-83KYWDqsgWYCN_nNXG-29" style="edgeStyle=orthogonalEdgeStyle;rounded=0;orthogonalLoop=1;jettySize=auto;html=1;exitX=0.5;exitY=1;exitDx=0;exitDy=0;entryX=0.5;entryY=0;entryDx=0;entryDy=0;" edge="1" parent="1" source="9-83KYWDqsgWYCN_nNXG-26" target="9-83KYWDqsgWYCN_nNXG-27">
          <mxGeometry relative="1" as="geometry" />
        </mxCell>
        <mxCell id="9-83KYWDqsgWYCN_nNXG-26" value="number = j" style="rhombus;whiteSpace=wrap;html=1;" vertex="1" parent="1">
          <mxGeometry x="365" y="680" width="80" height="80" as="geometry" />
        </mxCell>
        <mxCell id="9-83KYWDqsgWYCN_nNXG-31" style="edgeStyle=orthogonalEdgeStyle;rounded=0;orthogonalLoop=1;jettySize=auto;html=1;exitX=0.5;exitY=1;exitDx=0;exitDy=0;entryX=0.5;entryY=1;entryDx=0;entryDy=0;entryPerimeter=0;" edge="1" parent="1" source="9-83KYWDqsgWYCN_nNXG-27" target="9-83KYWDqsgWYCN_nNXG-30">
          <mxGeometry relative="1" as="geometry" />
        </mxCell>
        <mxCell id="9-83KYWDqsgWYCN_nNXG-27" value="change[i] = alphabet[j]" style="rounded=0;whiteSpace=wrap;html=1;" vertex="1" parent="1">
          <mxGeometry x="345" y="790" width="120" height="60" as="geometry" />
        </mxCell>
        <mxCell id="9-83KYWDqsgWYCN_nNXG-30" value="&#xa;&lt;span style=&quot;color: rgb(0, 0, 0); font-family: Helvetica; font-size: 12px; font-style: normal; font-variant-ligatures: normal; font-variant-caps: normal; font-weight: 400; letter-spacing: normal; orphans: 2; text-align: center; text-indent: 0px; text-transform: none; widows: 2; word-spacing: 0px; -webkit-text-stroke-width: 0px; background-color: rgb(251, 251, 251); text-decoration-thickness: initial; text-decoration-style: initial; text-decoration-color: initial; float: none; display: inline !important;&quot;&gt;진수에 알파벳이 포함 될때&lt;/span&gt;&#xa;&#xa;" style="strokeWidth=2;html=1;shape=mxgraph.flowchart.loop_limit;whiteSpace=wrap;rotation=-180;" vertex="1" parent="1">
          <mxGeometry x="325" y="870" width="155" height="60" as="geometry" />
        </mxCell>
      </root>
    </mxGraphModel>
  </diagram>
</mxfile>
